<svg viewBox="0 0 39 41"  xmlns="http://www.w3.org/2000/svg">
<path fill="transparent" d="M22.1672 14.3215H31.9459L37.8488 40.5H0.625291L6.52798 14.3214H16.3074H16.7209L16.7985 13.9153L16.9012 13.3784L16.9756 12.9895L16.6141 12.828C14.3529 11.8177 12.7781 9.58534 12.7781 6.96323C12.7781 3.40179 15.6763 0.5 19.2369 0.5C22.7991 0.5 25.6966 3.39049 25.6966 6.95069C25.6966 9.57375 24.1206 11.82 21.8603 12.8298L21.4984 12.9915L21.5733 13.3807L21.6762 13.9159L21.7543 14.3215H22.1672ZM21.1037 10.7311L21.3882 11.0807L21.7654 10.8337C23.0238 10.0096 23.8584 8.58721 23.8584 6.96764C23.8584 4.41606 21.7901 2.34643 19.2372 2.34643C16.6854 2.34643 14.6165 4.41573 14.6165 6.96764C14.6165 8.5873 15.4514 10.0093 16.7091 10.8336L17.0863 11.0808L17.3709 10.7311C17.6588 10.3774 18.3397 10.0553 19.2369 10.0553C20.135 10.0553 20.8158 10.3774 21.1037 10.7311Z" stroke="#BDBDBD"/>
</svg>
