<svg  viewBox="0 0 24 34" fill="transparent" xmlns="http://www.w3.org/2000/svg" stroke="transparent" stroke-width="5px">
<path d="M17.68 16.6H12.4001V12.3201C18.4001 12.1201 23.2401 7.16029 23.2401 1.08014C23.2401 0.840181 23.0803 0.680023 22.84 0.680023H1.16003C0.920076 0.680023 0.759918 0.839902 0.759918 1.08014C0.760197 7.15993 5.60006 12.1201 11.5999 12.3201V16.6H6.76006C4.11999 16.6 1.96013 18.7599 1.96013 21.3999V32.9199C1.96013 33.1599 2.12001 33.3201 2.36025 33.3201H22.0402C22.2802 33.3201 22.4404 33.1602 22.4404 32.9199L22.4401 21.3599C22.48 18.7199 20.3201 16.5999 17.68 16.5999L17.68 16.6ZM1.56 1.52H22.44C22.2399 7.08 17.6401 11.56 12 11.56C6.35993 11.56 1.76 7.08007 1.56 1.52ZM21.68 32.48H2.8V21.36C2.8 19.1599 4.59993 17.36 6.8 17.36H17.72C19.9201 17.36 21.72 19.1599 21.72 21.36V32.48H21.68Z" fill="#BDBDBD"/>
<path d="M12.24 21.8C9.08014 21.8 6.52014 24.36 6.52014 27.5199C6.52014 27.7598 6.68002 27.92 6.92026 27.92C7.16021 27.92 7.32037 27.7601 7.32037 27.5199C7.32037 24.8 9.52044 22.5999 12.2403 22.5999C14.9602 22.5999 17.1602 24.8 17.1602 27.5199C17.1602 27.7598 17.3201 27.92 17.5603 27.92C17.8003 27.92 17.9605 27.7601 17.9605 27.5199C17.92 24.36 15.36 21.8 12.24 21.8H12.24Z" fill="#BDBDBD"/>
<path d="M14.68 24.6L12.36 26.5601C12.24 26.5202 12.12 26.48 12.0001 26.48C11.56 26.48 11.2001 26.8399 11.2001 27.2799C11.2001 27.72 11.5601 28.0799 12.0001 28.0799C12.4401 28.0799 12.8 27.7199 12.8 27.2799V27.24L15.2002 25.2001C15.36 25.0402 15.4002 24.8 15.2401 24.6401C15.1201 24.4799 14.8402 24.4799 14.6801 24.5999L14.68 24.6Z" fill="#BDBDBD"/>
</svg>
