<svg viewBox="0 0 37 34" fill="transparent" xmlns="http://www.w3.org/2000/svg">
<path d="M5.88619 0C4.96179 0 4.20453 0.765459 4.20453 1.69986V3.39971H1.26143C0.569871 3.39971 0 3.97573 0 4.67479V32.7249C0 33.424 0.569849 34 1.26143 34H35.7386C36.4301 34 37 33.424 37 32.7249V4.67479C37 3.97575 36.4302 3.39971 35.7386 3.39971H32.7955V1.69986C32.7955 0.765459 32.0382 0 31.1138 0C30.1894 0 29.4321 0.765459 29.4321 1.69986V3.39971H24.3868V1.69986C24.3868 0.765459 23.6295 0 22.7051 0C21.7807 0 21.0235 0.765459 21.0235 1.69986V3.39971H15.9781V1.69986C15.9781 0.765459 15.2208 0 14.2964 0C13.3721 0 12.6148 0.765459 12.6148 1.69986V3.39971H7.56943V1.69986C7.56943 0.765459 6.81216 0 5.88777 0H5.88619ZM5.88619 0.849928C6.35926 0.849928 6.72702 1.22168 6.72702 1.69986V5.94987C6.72702 6.42806 6.35924 6.7998 5.88619 6.7998C5.41314 6.7998 5.04536 6.42805 5.04536 5.94987V1.69986C5.04536 1.22167 5.41314 0.849928 5.88619 0.849928ZM14.2952 0.849928C14.7683 0.849928 15.1361 1.22168 15.1361 1.69986V5.94987C15.1361 6.42806 14.7683 6.7998 14.2952 6.7998C13.8222 6.7998 13.4544 6.42805 13.4544 5.94987V1.69986C13.4544 1.22167 13.8222 0.849928 14.2952 0.849928ZM22.7043 0.849928C23.1774 0.849928 23.5451 1.22168 23.5451 1.69986V5.94987C23.5451 6.42806 23.1774 6.7998 22.7043 6.7998C22.2312 6.7998 21.8635 6.42805 21.8635 5.94987V1.69986C21.8635 1.22167 22.2312 0.849928 22.7043 0.849928ZM31.1134 0.849928C31.5864 0.849928 31.9542 1.22168 31.9542 1.69986V5.94987C31.9542 6.42806 31.5864 6.7998 31.1134 6.7998C30.6403 6.7998 30.2725 6.42805 30.2725 5.94987V1.69986C30.2725 1.22167 30.6403 0.849928 31.1134 0.849928ZM1.26121 4.25002H4.2043V5.94987C4.2043 6.88427 4.96157 7.64973 5.88596 7.64973C6.81036 7.64973 7.56763 6.88427 7.56763 5.94987V4.25002H12.613V5.94987C12.613 6.88427 13.3703 7.64973 14.2946 7.64973C15.219 7.64973 15.9763 6.88427 15.9763 5.94987V4.25002H21.0217V5.94987C21.0217 6.88427 21.7789 7.64973 22.7033 7.64973C23.6277 7.64973 24.385 6.88427 24.385 5.94987V4.25002H29.4303V5.94987C29.4303 6.88427 30.1876 7.64973 31.112 7.64973C32.0364 7.64973 32.7937 6.88427 32.7937 5.94987V4.25002H35.7368C35.977 4.25002 36.1573 4.43234 36.1573 4.67514V10.2002H0.839299V4.67514C0.839299 4.43234 1.01967 4.25002 1.25987 4.25002H1.26121ZM0.840636 11.0502H36.1587V32.7253C36.1587 32.9681 35.9783 33.1504 35.7381 33.1504H1.26097C1.02077 33.1504 0.840395 32.9681 0.840395 32.7253V11.0502H0.840636Z" fill="#BDBDBD" stroke="transparent" stroke-width="20px"/>
</svg>
