<svg viewBox="0 0 35 36" fill="transparent" xmlns="http://www.w3.org/2000/svg">
<path d="M17.5 0.000351609C16.4721 0.000351609 15.4863 0.411368 14.7594 1.14243C14.0326 1.87376 13.6242 2.8656 13.6242 3.89972V13.9828L1.37037 17.9214L0 23.3569L13.624 21.1905V30.092L10.1007 32.1006L9.4352 36L17.5 34.7788L25.5648 35.9997L24.8993 32.1003L21.376 30.0917V21.1903L35 23.3566L33.6296 17.9212L21.3367 13.9825V3.89944C21.3367 2.87222 20.9339 1.88614 20.2154 1.15614C19.4969 0.42587 18.5212 0.0104797 17.5001 0L17.5 0.000351609ZM32.9641 18.5516L33.9428 22.4114L20.5928 20.2846V30.5646L24.1946 32.6128L24.6253 35.0942L17.5 33.9519L10.3748 35.0547L10.8055 32.5733L14.4073 30.5251L14.4075 20.2845L1.05755 22.4113L2.03628 18.5514L14.4075 14.5734V3.89958C14.5222 2.87756 15.1317 1.97863 16.0359 1.49804C16.9399 1.01752 18.0215 1.01752 18.9254 1.49804C19.8294 1.97856 20.4391 2.87749 20.5539 3.89958V14.5734L32.9641 18.5516Z" fill="#BDBDBD" stroke="transparent" stroke-width="24px"/>
</svg>
