<svg width="26" height="26" viewBox="0 0 26 26" fill="none" xmlns="http://www.w3.org/2000/svg">
<path d="M13 0C5.82183 0 0 5.82075 0 13C0 18.7438 3.7245 23.6167 8.89092 25.3359C9.53983 25.4562 9.75 25.0532 9.75 24.7108V22.2907C6.13383 23.0772 5.38092 20.7567 5.38092 20.7567C4.78942 19.2541 3.93683 18.8543 3.93683 18.8543C2.75708 18.0472 4.02675 18.0646 4.02675 18.0646C5.33217 18.1556 6.019 19.4047 6.019 19.4047C7.17817 21.3915 9.05992 20.8173 9.802 20.4847C9.91792 19.6452 10.2548 19.071 10.6275 18.7471C7.74042 18.4167 4.70492 17.3019 4.70492 12.3218C4.70492 10.9016 5.213 9.74242 6.04392 8.83242C5.90958 8.50417 5.46433 7.18142 6.17067 5.39175C6.17067 5.39175 7.26267 5.04292 9.74675 6.72425C10.7835 6.43608 11.895 6.292 13 6.28658C14.105 6.292 15.2176 6.43608 16.2565 6.72425C18.7384 5.04292 19.8283 5.39175 19.8283 5.39175C20.5357 7.1825 20.0904 8.50525 19.9561 8.83242C20.7903 9.74242 21.294 10.9027 21.294 12.3218C21.294 17.3149 18.2531 18.4145 15.3584 18.7362C15.8243 19.1392 16.25 19.9301 16.25 21.1434V24.7108C16.25 25.0564 16.458 25.4627 17.1178 25.3348C22.2798 23.6134 26 18.7417 26 13C26 5.82075 20.1793 0 13 0Z" fill="#CCE4F3"/>
</svg>
