<svg viewBox="0 0 38 41" fill="none" xmlns="http://www.w3.org/2000/svg">
<g>
<path d="M16.7038 31.9368C11.2524 31.9368 6.81665 27.502 6.81665 22.0497C6.81665 16.5976 11.2521 12.1626 16.7038 12.1626C22.1562 12.1626 26.5917 16.5981 26.5917 22.0497C26.5914 27.5021 22.1563 31.9368 16.7038 31.9368ZM16.7038 12.5715C11.4777 12.5715 7.22558 16.8233 7.22558 22.0497C7.22558 27.2758 11.4777 31.5279 16.7038 31.5279C21.9305 31.5279 26.182 27.2761 26.182 22.0497C26.1816 16.8236 21.9299 12.5715 16.7038 12.5715Z" fill="#BDBDBD"/>
<path d="M15.6417 0.350519C15.6417 0.350519 15.6417 0.350521 15.6417 0.350524V11.154C15.6417 11.3474 15.7989 11.5039 15.9913 11.5039H17.4166C17.6094 11.5039 17.7662 11.347 17.7662 11.154V0.350519C17.7662 0.156833 17.6094 0 17.4166 0H15.9916C15.7986 0 15.6417 0.156499 15.6417 0.350514C15.6417 0.350517 15.6417 0.350519 15.6417 0.350519Z" fill="#BDBDBD"/>
<path d="M15.6417 32.9442C15.6417 32.9442 15.6417 32.9442 15.6417 32.9443V40.6501C15.6417 40.8429 15.7989 41 15.9913 41H17.4166C17.6094 41 17.7662 40.8429 17.7662 40.6501V32.9442C17.7662 32.7515 17.6094 32.5947 17.4166 32.5947H15.9916C15.7986 32.5947 15.6417 32.7515 15.6417 32.9442C15.6417 32.9442 15.6417 32.9442 15.6417 32.9442Z" fill="#BDBDBD"/>
<path d="M34.8861 20.9876H27.5994C27.406 20.9876 27.2498 21.1448 27.2498 21.3375V22.7619C27.2498 22.9553 27.406 23.1118 27.5994 23.1118H34.8861C35.0798 23.1118 35.236 22.9549 35.236 22.7619V21.3375C35.2357 21.1441 35.0798 20.9876 34.8861 20.9876Z" fill="#BDBDBD"/>
<path d="M5.80842 20.9876H2.83707C2.64435 20.9876 2.48752 21.1448 2.48752 21.3375V22.7619C2.48752 22.9553 2.64434 23.1118 2.83707 23.1118H5.80842C6.00178 23.1118 6.15797 22.9549 6.15797 22.7619V21.3375C6.15797 21.1441 6.00114 20.9876 5.80842 20.9876Z" fill="#BDBDBD"/>
<path d="M1.58336 8.41436C1.58336 8.41436 1.58337 8.41436 1.58337 8.41436L8.25874 15.0897C8.39487 15.2259 8.61701 15.2255 8.75348 15.0897L9.76073 14.0825C9.89751 13.9457 9.89654 13.7242 9.76073 13.5874L3.08535 6.91304C2.94922 6.77626 2.72708 6.77594 2.59062 6.91304L1.58336 7.91996C1.44756 8.05609 1.44755 8.27758 1.58336 8.41437C1.58336 8.41437 1.58336 8.41437 1.58336 8.41436Z" fill="#BDBDBD"/>
<path d="M23.6671 30.4973C23.6671 30.4973 23.6671 30.4973 23.6671 30.4973L28.0709 34.901C28.2077 35.0378 28.4292 35.0378 28.5659 34.901L29.5729 33.8938C29.71 33.757 29.71 33.5358 29.5729 33.3991L25.1694 28.9956C25.0327 28.8589 24.8115 28.8585 24.6747 28.9953L23.6668 30.0026C23.5307 30.1393 23.5307 30.3605 23.6671 30.4973C23.6671 30.4973 23.6671 30.4973 23.6671 30.4973Z" fill="#BDBDBD"/>
<path d="M24.7375 12.5169C24.7375 12.5169 24.7374 12.5169 24.7374 12.5169L23.6665 13.5869C23.5303 13.7237 23.5307 13.9452 23.6665 14.0819L24.6744 15.0892C24.8112 15.2253 25.0323 15.2253 25.1685 15.0892L26.2395 14.0182C26.3756 13.8821 26.3762 13.6609 26.2395 13.5241L25.2322 12.5169C25.0951 12.3801 24.8739 12.3801 24.7375 12.5168C24.7375 12.5169 24.7375 12.5169 24.7375 12.5169Z" fill="#BDBDBD"/>
<path d="M8.25865 28.9957C8.25866 28.9957 8.25866 28.9957 8.25865 28.9957L4.7913 32.4627C4.65517 32.5995 4.65549 32.8206 4.79162 32.9574L5.79854 33.9653C5.93564 34.1015 6.15682 34.1015 6.29328 33.9644L9.76031 30.4973C9.89644 30.3606 9.89741 30.1394 9.76064 30.0033L8.75338 28.9953C8.61693 28.8589 8.39543 28.8589 8.25865 28.9957C8.25865 28.9957 8.25865 28.9957 8.25865 28.9957Z" fill="#BDBDBD"/>
<path d="M23.7781 36.5898C23.7781 36.5898 23.7781 36.5898 23.778 36.5898L21.7723 31.7052C21.6996 31.5267 21.4946 31.4414 21.3161 31.5148L19.9987 32.0554C19.8193 32.1291 19.7345 32.3341 19.8083 32.512L21.8138 37.3966C21.8872 37.5754 22.0915 37.6608 22.27 37.5877L23.588 37.0467C23.7658 36.973 23.8519 36.7687 23.7782 36.5899C23.7782 36.5898 23.7781 36.5898 23.7781 36.5898Z" fill="#BDBDBD"/>
<path d="M13.4953 11.5475L12.5886 9.33965C12.5152 9.16116 12.3105 9.07579 12.132 9.14919L10.8147 9.69017C10.6358 9.76357 10.5505 9.96793 10.6236 10.1464L11.5302 12.3543C11.604 12.5328 11.808 12.6185 11.9868 12.5448L13.3041 12.0038C13.4836 11.931 13.569 11.726 13.4953 11.5475Z" fill="#BDBDBD"/>
<path d="M3.95748 28.3906C3.95748 28.3906 3.95748 28.3906 3.95748 28.3906L6.97635 27.1505C7.15483 27.0778 7.24053 26.8724 7.1668 26.694L6.6255 25.3759C6.55275 25.1971 6.34774 25.1121 6.16925 25.1855L3.15005 26.4255C2.97157 26.4989 2.88587 26.7026 2.9596 26.8818L3.50057 28.1998C3.5743 28.3783 3.77801 28.4636 3.95747 28.3906C3.95747 28.3906 3.95747 28.3906 3.95748 28.3906Z" fill="#BDBDBD"/>
<path d="M27.1339 18.8743L37.641 14.5604C37.8205 14.4867 37.9052 14.2817 37.8315 14.1032L37.2909 12.7859C37.2171 12.6071 37.0128 12.5217 36.8346 12.5948L26.3275 16.9096C26.1487 16.983 26.0633 17.1874 26.1364 17.3662L26.6777 18.6842C26.7511 18.8624 26.9548 18.9474 27.1339 18.8743Z" fill="#BDBDBD"/>
<path d="M35.8165 28.8988C35.8166 28.8988 35.8166 28.8988 35.8166 28.8988L27.1074 25.2598C26.929 25.1851 26.7236 25.2695 26.6499 25.4476L26.1002 26.7624C26.0261 26.9409 26.1099 27.1453 26.2874 27.2199L34.9974 30.8593C35.1759 30.934 35.3812 30.8496 35.4553 30.6715L36.005 29.3567C36.0794 29.1789 35.9956 28.9736 35.8165 28.8988C35.8165 28.8988 35.8165 28.8988 35.8165 28.8988Z" fill="#BDBDBD"/>
<path d="M7.00042 16.8595C7.00042 16.8595 7.00042 16.8595 7.00041 16.8595L1.25407 14.4582C1.0759 14.3835 0.87057 14.4686 0.796525 14.6461L0.247791 15.9609C0.173097 16.1394 0.257493 16.3437 0.435982 16.4184L6.18233 18.8197C6.3605 18.8944 6.56518 18.81 6.63987 18.6315L7.18925 17.3174C7.26395 17.1389 7.17891 16.9342 7.00043 16.8595C7.00042 16.8595 7.00042 16.8595 7.00042 16.8595Z" fill="#BDBDBD"/>
<path d="M12.8405 33.8987L13.4241 32.5024C13.4988 32.324 13.4138 32.1189 13.2359 32.0449L11.9211 31.4955C11.743 31.4208 11.5383 31.5052 11.4639 31.6827L10.8803 33.0803C10.8056 33.2588 10.89 33.4631 11.0685 33.5378L12.3826 34.0872C12.5611 34.1619 12.7661 34.0772 12.8404 33.8987L12.8405 33.8987Z" fill="#BDBDBD"/>
<path d="M21.8245 12.3969C21.8245 12.3969 21.8245 12.3968 21.8245 12.3968L23.7155 7.87248C23.7895 7.694 23.7058 7.48899 23.5273 7.41494L22.2125 6.86556C22.034 6.79087 21.8297 6.87591 21.7553 7.05375L19.8653 11.5781C19.7906 11.7566 19.8747 11.961 20.0525 12.0357L21.3666 12.5854C21.5448 12.6594 21.7498 12.575 21.8245 12.3969C21.8245 12.3969 21.8245 12.3969 21.8245 12.3969Z" fill="#BDBDBD"/>
</g>
</svg>
